<svg width="218" height="196" viewBox="0 0 218 196" fill="none" xmlns="http://www.w3.org/2000/svg">
    <g clip-path="url(#clip0)">
        <path
            d="M32.1644 65.9492L16.3153 54.3777C12.1742 51.3545 11.5434 45.8852 14.9064 42.1623C18.2689 38.4395 24.3521 37.872 28.4929 40.8955L32.1644 43.5763L50.9744 58.3625L42.8185 73.7906L32.1644 65.9492Z"
            fill="#FED2A4" />
        <path
            d="M32.1644 148.321C32.1644 155.287 38.4456 160.934 46.1935 160.934H120.256C126.602 160.934 131.747 156.309 131.747 150.603V15.5029C131.747 8.5368 125.466 2.88953 117.718 2.88953H46.1935C38.4456 2.88953 32.1644 8.5368 32.1644 15.5029V148.321Z"
            fill="#A79BA7" />
        <path
            d="M33.9676 61.8896C33.3613 61.8896 32.7605 61.9209 32.1644 61.9736V142.476C34.2273 143.184 36.429 143.56 38.6573 143.56C44.1765 143.56 49.3363 141.352 52.8145 137.501L53.3617 136.895C56.4312 133.497 57.8448 129.227 57.3426 124.872C57.1215 122.957 56.5413 121.127 55.6393 119.442C56.1436 119 56.624 118.53 57.0748 118.031L57.3803 117.693C61.9084 112.679 62.5889 105.967 59.7616 100.465C60.3649 99.9566 60.9383 99.413 61.4688 98.8262L61.7207 98.5469C64.7902 95.1484 66.2039 90.8789 65.7016 86.5246C65.1994 82.1698 62.8409 78.252 59.061 75.4927L45.4526 65.557C42.2144 63.1922 38.1353 61.8896 33.9676 61.8896Z"
            fill="#918291" />
        <path
            d="M131.747 150.603V74.4401L119.542 62.7977C117.009 60.3816 113.438 58.9962 109.746 58.9962C105.855 58.9962 102.157 60.5084 99.5996 63.1448L98.8039 63.9654C90.4453 72.5831 90.0536 85.3825 97.8723 94.3998L112.136 110.85L96.7427 135.13C92.0257 142.571 90.483 151.289 92.3993 159.678L92.686 160.934H120.256C126.602 160.934 131.747 156.309 131.747 150.603Z"
            fill="#918291" />
        <path
            d="M118.891 15.5028C118.891 14.9199 118.366 14.4475 117.718 14.4475H102.04C101.155 14.4475 100.372 14.9626 100.105 15.7205L99.7505 16.7241C99.1081 18.5441 97.2287 19.7808 95.105 19.7808H70.2653C68.1416 19.7808 66.2621 18.5445 65.6198 16.7241L65.2658 15.7205C64.9984 14.9622 64.2155 14.4471 63.3311 14.4471H46.194C45.5456 14.4471 45.0203 14.9195 45.0203 15.5024V148.32C45.0203 148.903 45.5456 149.375 46.194 149.375H118.891V15.5028Z"
            fill="#F9F7F8" />
        <path
            d="M91.7694 149.376H118.891V62.2232C116.416 60.1651 113.133 58.9962 109.746 58.9962C105.855 58.9962 102.157 60.5084 99.5996 63.1448L98.8039 63.9654C90.4453 72.5831 90.0536 85.3825 97.8723 94.3998L112.136 110.85L96.7427 135.13C93.9463 139.541 92.2755 144.402 91.7694 149.376Z"
            fill="#EFEDEF" />
        <path
            d="M45.0199 65.2543V142.53C48.0323 141.525 50.7277 139.811 52.8146 137.5L53.3618 136.894C56.4312 133.496 57.8449 129.226 57.3427 124.872C57.1216 122.957 56.5413 121.127 55.6393 119.442C56.1437 118.999 56.6241 118.529 57.0749 118.03L57.3804 117.693C61.9085 112.679 62.589 105.966 59.7616 100.465C60.365 99.9563 60.9383 99.4126 61.4688 98.8259L61.7208 98.5466C64.7902 95.1481 66.2039 90.8785 65.7017 86.5242C65.1995 82.1695 62.8409 78.2517 59.061 75.4924L45.4527 65.5567C45.3113 65.4531 45.1656 65.3541 45.0199 65.2543Z"
            fill="#EFEDEF" />
        <path
            d="M203.864 190.96L166.778 151.736C165.585 150.475 164.93 148.873 164.93 147.218V132.342C164.93 122.699 160.833 113.421 153.478 106.403L113.306 68.0832C111.323 66.192 107.959 66.2505 106.059 68.2092L105.263 69.0299C99.5842 74.884 99.3198 83.536 104.631 89.6622L119.522 106.836C121.278 108.861 121.501 111.639 120.087 113.87L104.189 138.947C100.504 144.758 99.2979 151.576 100.794 158.129L101.979 163.315C104.539 174.522 114.538 183.14 127.101 184.966L132.78 191.628C133.577 192.563 134.813 193.111 136.123 193.111H202.758C203.996 193.11 204.666 191.808 203.864 190.96Z"
            fill="#FED2A4" />
        <path
            d="M41.2295 95.2355L27.6208 85.2998C23.4796 82.2766 22.8488 76.8073 26.2118 73.0845L26.4638 72.8051C29.8263 69.0819 35.9095 68.5148 40.0502 71.5384L53.659 81.4741C57.8002 84.4973 58.4309 89.9666 55.0679 93.6894L54.816 93.9687C51.453 97.6916 45.3702 98.2587 41.2295 95.2355Z"
            fill="#FED2A4" />
        <path
            d="M36.8387 114.437L23.1138 104.416C18.9727 101.393 18.3419 95.924 21.7049 92.2011L22.0074 91.8659C25.3699 88.1427 31.4531 87.5756 35.5939 90.5992L49.3187 100.62C53.4599 103.643 54.0907 109.113 50.7277 112.835L50.4251 113.171C47.0626 116.893 40.9798 117.461 36.8387 114.437Z"
            fill="#FED2A4" />
        <path
            d="M32.5745 133.911L18.2848 123.478C14.1437 120.455 13.5129 114.985 16.8759 111.263L17.4239 110.656C20.7865 106.933 26.8697 106.365 31.0104 109.389L45.3001 119.822C49.4412 122.845 50.072 128.314 46.709 132.037L46.1609 132.644C42.7984 136.367 36.7156 136.934 32.5745 133.911Z"
            fill="#FED2A4" />
        <path
            d="M65.8461 113.13C63.551 113.13 61.6908 114.803 61.6908 116.866V129.23C61.6908 131.293 63.5514 132.966 65.8461 132.966H101.044C102.752 132.966 104.138 131.721 104.138 130.184V115.911C104.138 114.375 102.753 113.13 101.044 113.13H65.8461V113.13Z"
            fill="#6BD9E7" />
        <path
            d="M88.3112 158.045H46.1934C40.2298 158.045 35.3782 153.683 35.3782 148.321V137.673C36.3243 137.871 37.2958 137.981 38.2822 137.981C38.7304 137.981 39.1821 137.96 39.6346 137.918C40.3768 137.848 41.1018 137.72 41.8059 137.543V148.321C41.8059 150.496 43.7741 152.266 46.1934 152.266H87.4675C89.2424 152.266 90.6813 150.972 90.6813 149.376C90.6813 147.78 89.2424 146.487 87.4675 146.487H48.2336V133.771C48.255 133.747 48.2782 133.725 48.2992 133.701C52.5333 129.014 52.0032 122.224 47.2652 118.099C49.3345 117.401 51.2319 116.22 52.7227 114.57C56.9569 109.882 56.4268 103.092 51.6887 98.9672C53.758 98.2699 55.6555 97.0891 57.1463 95.4386C59.3137 93.0387 60.3121 90.0236 59.9573 86.9488C59.6025 83.8743 57.9373 81.1073 55.2681 79.1586L48.2332 74.0222V17.3371H62.4637L62.5558 17.5984C63.6267 20.632 66.7244 22.6704 70.2644 22.6704H95.104C98.644 22.6704 101.742 20.6324 102.813 17.598L102.906 17.3371H115.677V57.436C115.677 59.0322 117.116 60.3255 118.891 60.3255C120.667 60.3255 122.105 59.0322 122.105 57.436V15.5029C122.105 13.3276 120.137 11.5581 117.718 11.5581H102.04C99.7448 11.5581 97.736 12.88 97.0413 14.8471L96.6874 15.85C96.4676 16.473 95.8316 16.8914 95.1049 16.8914H70.2652C69.5389 16.8914 68.903 16.473 68.6831 15.8504L68.3292 14.8471C67.635 12.88 65.6266 11.5581 63.3306 11.5581H46.1934C43.7741 11.5581 41.8059 13.328 41.8059 15.5029V69.3447C39.9071 68.0729 37.6964 67.3089 35.3782 67.1093V37.6986C35.3782 36.1025 33.9392 34.8091 32.1643 34.8091C30.4001 34.8091 28.9693 36.0871 28.9522 37.6697C26.5919 36.4103 23.8559 35.8655 21.0761 36.1248C17.6561 36.4438 14.579 37.941 12.4116 40.3408C10.2441 42.7407 9.24569 45.7558 9.60007 48.8306C9.95488 51.9051 11.6201 54.6721 14.2893 56.6208L28.9505 67.3251V68.0305C27.095 68.7606 25.4465 69.8806 24.1327 71.335C21.9653 73.7348 20.9668 76.7499 21.3212 79.8248C21.6362 82.5563 22.9881 85.0432 25.1568 86.931C23.0438 87.6442 21.1695 88.8493 19.7087 90.4663C15.4737 95.1554 16.0046 101.947 20.7453 106.072C18.6751 106.768 16.7764 107.946 15.2852 109.598C13.1173 111.997 12.1189 115.013 12.4737 118.087C12.8285 121.162 14.4937 123.929 17.1629 125.878L28.95 134.484V148.321C28.95 156.869 36.6852 163.823 46.193 163.823H88.3108C90.0857 163.823 91.5246 162.53 91.5246 160.934C91.5246 159.338 90.0861 158.045 88.3112 158.045ZM18.3413 52.1343C17.0052 51.1588 16.1713 49.7737 15.9935 48.2342C15.8161 46.6947 16.3157 45.1852 17.4012 43.9835C18.4862 42.7823 20.0267 42.0329 21.7394 41.8726C23.4501 41.7124 25.1307 42.162 26.4668 43.1383L28.9505 44.9517V59.8801L18.3413 52.1343ZM29.1227 74.9777C30.2077 73.7764 31.7482 73.0271 33.461 72.8668C33.6873 72.8456 33.9131 72.8352 34.1381 72.8352C35.6113 72.8352 37.0292 73.286 38.1888 74.1324L51.2173 83.6443C52.5535 84.6198 53.3873 86.0049 53.5652 87.5444C53.7426 89.0839 53.2429 90.5934 52.1579 91.7947C49.9177 94.2751 45.8511 94.6553 43.0919 92.64L30.0633 83.1281C28.7272 82.1526 27.8933 80.7675 27.7155 79.228C27.5377 77.6888 28.0377 76.1793 29.1227 74.9777ZM24.6992 94.1094C25.7842 92.9081 27.3247 92.1588 29.0375 91.9985C30.6787 91.8471 32.2869 92.2582 33.5947 93.1516L39.0394 97.1268C39.1011 97.1719 39.1662 97.2093 39.2284 97.2532L46.7929 102.776C49.5517 104.79 49.9734 108.447 47.7331 110.927C45.4928 113.407 41.4258 113.786 38.667 111.772L25.6389 102.26C22.8806 100.246 22.4589 96.5898 24.6992 94.1094ZM18.868 117.491C18.6906 115.952 19.1902 114.443 20.2756 113.241C21.5475 111.833 23.4085 111.102 25.2845 111.102C26.6365 111.102 27.9936 111.487 29.1463 112.266L34.6159 116.259C34.6784 116.305 34.7453 116.343 34.8087 116.387L42.3698 121.908C45.1286 123.922 45.5502 127.579 43.31 130.058C42.2245 131.26 40.684 132.009 38.9717 132.169C37.2598 132.328 35.5804 131.879 34.2443 130.904L21.2162 121.392C19.8793 120.416 19.0454 119.031 18.868 117.491Z"
            fill="black" />
        <path
            d="M32.1643 28.2741C33.9392 28.2741 35.3781 26.9808 35.3781 25.3846V15.5029C35.3781 10.1411 40.2302 5.77904 46.1934 5.77904H117.718C123.681 5.77904 128.532 10.1411 128.532 15.5029V68.8226C128.532 70.4188 129.971 71.7121 131.746 71.7121C133.522 71.7121 134.96 70.4188 134.96 68.8226V15.5029C134.96 6.9545 127.225 0 117.718 0H46.1934C36.6855 0 28.9504 6.9545 28.9504 15.5029V25.3842C28.9504 26.9804 30.3894 28.2741 32.1643 28.2741Z"
            fill="black" />
        <path
            d="M208.346 191.239L186.42 168.05C185.27 166.834 183.242 166.686 181.89 167.72C180.538 168.754 180.373 170.577 181.523 171.793L203.449 194.982C204.084 195.655 204.989 196 205.899 196C206.635 196 207.375 195.775 207.979 195.312C209.331 194.279 209.496 192.455 208.346 191.239Z"
            fill="black" />
        <path
            d="M129.652 183.208C129.153 182.623 128.424 182.231 127.615 182.113C116.441 180.489 107.404 172.701 105.127 162.733L103.942 157.547C102.602 151.679 103.681 145.581 106.98 140.377L122.879 115.3C124.946 112.039 124.624 108.02 122.057 105.059L107.166 87.8854C102.809 82.8611 103.028 75.7297 107.685 70.9289L108.481 70.1083C108.906 69.6694 109.436 69.5962 109.713 69.5912C109.998 69.5831 110.523 69.6417 110.967 70.0651L125.176 83.6197C126.393 84.7812 128.427 84.8344 129.719 83.7402C131.011 82.6457 131.071 80.8168 129.854 79.6552L115.644 66.1011C114.079 64.6074 111.872 63.7702 109.589 63.813C107.306 63.8526 105.137 64.7623 103.636 66.3091L102.84 67.1297C96.1642 74.0122 95.8514 84.2349 102.097 91.4379L116.987 108.611C117.946 109.717 118.067 111.22 117.295 112.438L101.396 137.515C97.3233 143.939 95.9915 151.466 97.646 158.709L98.8304 163.895C101.553 175.816 112.108 185.211 125.305 187.608L131.494 194.868C132.127 195.611 133.082 196 134.047 196C134.729 196 135.417 195.805 136 195.404C137.409 194.433 137.676 192.619 136.596 191.353L129.652 183.208Z"
            fill="black" />
        <path
            d="M169.227 149.865C168.529 149.127 168.144 148.187 168.144 147.218V132.342C168.144 121.92 163.766 112.005 155.816 104.421L139.252 88.6208C138.035 87.4592 136.001 87.4061 134.709 88.5002C133.417 89.5948 133.357 91.4237 134.574 92.5853L151.139 108.386C157.96 114.893 161.716 123.4 161.716 132.342V147.218C161.716 149.557 162.644 151.826 164.329 153.608L172.623 162.38C173.259 163.053 174.163 163.399 175.073 163.399C175.809 163.399 176.548 163.173 177.153 162.711C178.506 161.677 178.67 159.854 177.521 158.638L169.227 149.865Z"
            fill="black" />
        <path
            d="M82.6849 31.4835C74.4424 31.4835 67.7371 37.5122 67.7371 44.9233C67.7371 52.3335 74.4424 58.3626 82.6849 58.3626C85.2097 58.3626 87.5888 57.7947 89.6765 56.7973L94.6109 61.2336C95.2382 61.7977 96.061 62.0797 96.8833 62.0797C97.7056 62.0797 98.5284 61.7977 99.1557 61.2332C100.411 60.1048 100.411 58.2755 99.1557 57.1471L94.5882 53.0409C96.4968 50.784 97.6328 47.9715 97.6328 44.924C97.6332 37.5122 90.9274 31.4835 82.6849 31.4835ZM74.1648 44.9233C74.1648 40.6992 77.9867 37.2626 82.6849 37.2626C87.3831 37.2626 91.2055 40.6992 91.2055 44.9233C91.2055 49.1473 87.3831 52.5836 82.6849 52.5836C77.9867 52.5836 74.1648 49.147 74.1648 44.9233Z"
            fill="black" />
        <path
            d="M90.9822 130.076H65.846C65.327 130.076 64.9045 129.697 64.9045 129.23V116.866C64.9045 116.399 65.327 116.02 65.846 116.02H98.1071C99.882 116.02 101.321 114.726 101.321 113.13C101.321 111.534 99.882 110.241 98.1071 110.241H65.846C61.7828 110.241 58.4768 113.213 58.4768 116.866V129.23C58.4768 132.883 61.7828 135.855 65.846 135.855H90.9822C92.7571 135.855 94.196 134.562 94.196 132.966C94.196 131.37 92.7571 130.076 90.9822 130.076Z"
            fill="black" />
    </g>
    <defs>
        <clipPath id="clip0">
            <rect width="218" height="196" fill="white" />
        </clipPath>
    </defs>
</svg>