<svg width="40" height="45" viewBox="0 0 47 50" fill="none" xmlns="http://www.w3.org/2000/svg">
<g clip-path="url(#clip0)">
<path d="M45.2415 22.0638L23.4875 45.2085L1.73356 22.0638C1.32772 21.6467 0.680896 21.6588 0.288852 22.0905C-0.0935171 22.5117 -0.0935171 23.1795 0.288852 23.6006L22.7662 47.5127C23.1651 47.937 23.8118 47.937 24.2109 47.5127L46.6882 23.6006C47.0802 23.1689 47.0689 22.4808 46.6631 22.0637C46.2671 21.6568 45.6395 21.6568 45.2435 22.0637L45.2415 22.0638Z" fill="#607D8B"/>
<path d="M45.2415 2.49944L23.4875 25.6441L1.73356 2.49944C1.32772 2.08237 0.680896 2.0944 0.288852 2.52614C-0.0935171 2.94738 -0.0935171 3.61512 0.288852 4.03637L22.7662 27.9484C23.1651 28.3727 23.8118 28.3727 24.2109 27.9484L46.6882 4.03637C47.094 3.6193 47.1052 2.93128 46.7133 2.49944C46.3213 2.0677 45.6745 2.05578 45.2686 2.47274C45.2601 2.48151 45.2517 2.49037 45.2435 2.49944H45.2415Z" fill="#607D8B"/>
<path d="M23.4875 47.8323C23.2163 47.8328 22.9561 47.7187 22.7641 47.5149L0.286813 23.6029C-0.105231 23.1711 -0.0939281 22.483 0.311908 22.066C0.707879 21.6592 1.33555 21.6592 1.73143 22.066L23.4874 45.2085L45.2413 22.0638C45.6472 21.6468 46.294 21.6588 46.6861 22.0905C47.0685 22.5118 47.0685 23.1795 46.6861 23.6007L24.2088 47.5128C24.0177 47.7167 23.7583 47.8316 23.4875 47.8323Z" fill="white"/>
<path d="M23.4875 28.268C23.2163 28.2685 22.9561 28.1543 22.7641 27.9505L0.286813 4.03851C-0.105231 3.60676 -0.0939281 2.91865 0.311908 2.50158C0.707879 2.09481 1.33555 2.09481 1.73152 2.50158L23.4875 25.6441L45.2415 2.49944C45.6335 2.0677 46.2802 2.05578 46.6862 2.47274C47.0921 2.88971 47.1032 3.57783 46.7113 4.00967C46.703 4.01874 46.6947 4.0276 46.6862 4.03637L24.2088 27.9484C24.0177 28.1523 23.7583 28.2672 23.4875 28.268Z" fill="white"/>
</g>
<defs>
<clipPath id="clip0">
<rect width="47" height="50" fill="white"/>
</clipPath>
</defs>
</svg>
