<svg width="20" height="20" viewBox="0 0 24 24" fill="none" xmlns="http://www.w3.org/2000/svg">
<g clip-path="url(#clip0)">
<path d="M10.1144 24C5.75956 23.9794 2.15735 16.6879 2.15735 12.9745C2.15735 6.90873 7.70509 5.58077 9.84314 5.58077C10.8067 5.58077 11.8355 5.89112 12.743 6.16577C13.3776 6.35734 14.0339 6.55511 14.3989 6.55511C14.6174 6.55511 15.1322 6.38688 15.5868 6.23927C16.5562 5.92272 17.7625 5.5293 19.1672 5.5293C19.1697 5.5293 19.1731 5.5293 19.1756 5.5293C20.2245 5.5293 23.4048 5.71811 25.3169 8.0733L25.7647 8.62534L25.1202 9.0243C24.1993 9.5942 22.5191 10.6338 22.5191 12.6931C22.5191 15.132 24.422 16.07 25.3361 16.5211C25.7396 16.7202 26.1573 16.9255 26.1573 17.3746C26.1573 17.6678 23.3044 23.9636 19.1613 23.9636C18.1476 23.9636 17.431 23.7137 16.7989 23.4933C16.1594 23.2701 15.6076 23.0779 14.696 23.0779C14.2339 23.0779 13.6496 23.2571 13.0309 23.4473C12.1855 23.7061 11.2286 24 10.1428 24H10.1144Z" fill="white"/>
<path d="M19.6062 0C19.7141 3.19106 16.9318 5.40488 14.1528 5.26603C13.6948 2.71945 16.9315 0 19.6062 0Z" fill="white"/>
</g>
<defs>
<clipPath id="clip0">
<rect width="24" height="24" fill="white"/>
</clipPath>
</defs>
</svg>
