<svg width="20" height="20" viewBox="0 0 24 24" fill="none" xmlns="http://www.w3.org/2000/svg">
<g clip-path="url(#clip0)">
<path d="M5.59852 0.305861C4.98023 -0.0663303 4.24335 -0.0996118 3.60069 0.210235L14.3759 11.0085L17.8991 7.4689L5.59852 0.305861ZM2.61068 1.20962C2.47474 1.49743 2.40161 1.81759 2.40161 2.14713V21.8995C2.40161 22.2304 2.47521 22.5459 2.61255 22.8276L13.3836 12.0055L2.61068 1.20962ZM14.3774 13.0011L3.61948 23.8102C3.90495 23.9423 4.20871 24 4.51199 24C4.88653 24 5.26012 23.9105 5.59856 23.707L17.9015 16.5332L14.3774 13.0011ZM22.5839 10.1971C22.5797 10.1942 22.575 10.1914 22.5708 10.1891L19.1554 8.20016L15.3693 12.0041L19.1578 15.8005C19.1578 15.8005 22.5797 13.8055 22.5839 13.8032C23.2191 13.4174 23.5983 12.7433 23.5983 11.9999C23.5983 11.2564 23.2191 10.5824 22.5839 10.1971Z" fill="white"/>
</g>
<defs>
<clipPath id="clip0">
<rect width="24" height="24" fill="white"/>
</clipPath>
</defs>
</svg>
