<svg width="232" height="188" viewBox="0 0 232 188" fill="none" xmlns="http://www.w3.org/2000/svg">
    <g clip-path="url(#clip0)">
        <path
            d="M232 43.7003H0V18.6336C0 15.8648 2.76987 13.6202 6.18676 13.6202H225.813C229.23 13.6202 232 15.8648 232 18.6336V43.7003Z"
            fill="#3A556A" />
        <path d="M232 43.7003H105.173L124.054 26.2152C125.816 24.5833 128.362 23.6471 131.038 23.6471H232V43.7003Z"
            fill="#D5D6DB" />
        <path
            d="M222.72 174.38H9.28014C4.15456 174.38 0 171.013 0 166.86V43.7003H232V166.86C232 171.013 227.845 174.38 222.72 174.38Z"
            fill="#EBF0F3" />
        <path
            d="M28.802 36.1815C33.9273 36.1815 38.0821 32.8146 38.0821 28.6613C38.0821 24.5081 33.9273 21.1412 28.802 21.1412C23.6767 21.1412 19.5219 24.5081 19.5219 28.6613C19.5219 32.8146 23.6767 36.1815 28.802 36.1815Z"
            fill="#FCD462" />
        <path
            d="M56.642 36.1815C61.7672 36.1815 65.9221 32.8146 65.9221 28.6613C65.9221 24.5081 61.7672 21.1412 56.642 21.1412C51.5167 21.1412 47.3618 24.5081 47.3618 28.6613C47.3618 32.8146 51.5167 36.1815 56.642 36.1815Z"
            fill="#E1E6E9" />
        <path
            d="M84.4819 36.1815C89.6071 36.1815 93.762 32.8146 93.762 28.6613C93.762 24.5081 89.6071 21.1412 84.4819 21.1412C79.3566 21.1412 75.2017 24.5081 75.2017 28.6613C75.2017 32.8146 79.3566 36.1815 84.4819 36.1815Z"
            fill="#27A2DB" />
        <path d="M75.2017 61.589H19.5219V106.709H75.2017V61.589Z" fill="#E56353" />
        <path d="M75.2017 117.488H19.5219V131.608H75.2017V117.488Z" fill="#44C4A1" />
        <path d="M75.2017 142.379H19.5219V156.499H75.2017V142.379Z" fill="#1C75A1" />
        <path d="M212.472 69.0588H94.2445V74.0722H212.472V69.0588Z" fill="#D5D6DB" />
        <path d="M212.472 81.667H94.2445V86.6804H212.472V81.667Z" fill="#D5D6DB" />
        <path d="M212.472 94.2006H94.2445V99.214H212.472V94.2006Z" fill="#D5D6DB" />
        <path d="M212.472 121.924H94.2445V126.937H212.472V121.924Z" fill="#D5D6DB" />
        <path d="M212.472 134.508H94.2445V139.521H212.472V134.508Z" fill="#D5D6DB" />
        <path d="M212.472 147.041H94.2445V152.054H212.472V147.041Z" fill="#D5D6DB" />
    </g>
    <defs>
        <clipPath id="clip0">
            <rect width="232" height="188" fill="white" />
        </clipPath>
    </defs>
</svg>